<?xml version="1.0" encoding="utf-8"?>
<!-- Generator: Adobe Illustrator 22.1.0, SVG Export Plug-In . SVG Version: 6.00 Build 0)  -->
<svg version="1.1" id="Capa_1" xmlns="http://www.w3.org/2000/svg" xmlns:xlink="http://www.w3.org/1999/xlink" x="0px" y="0px"
	 viewBox="0 0 211.6 211.6" style="enable-background:new 0 0 211.6 211.6;" xml:space="preserve">
<style type="text/css">
	.st0{fill:none;stroke:#000000;stroke-width:4;stroke-miterlimit:10;}
	.st1{fill:#FF0000;}
</style>
<path class="st0" d="M146.8,49.9H64.8C29,49.9,0,78.9,0,114.8v41.5c0,3,2.4,5.5,5.5,5.5c1.3,0,2.6-0.5,3.6-1.4
	c16.5-15.1,53.6-25.6,96.7-25.6s80.3,10.5,96.7,25.6c1,0.9,2.3,1.4,3.6,1.4c3,0,5.5-2.4,5.5-5.5v-41.5
	C211.6,78.9,182.6,49.9,146.8,49.9z"/>
<path class="st1" d="M126.8,102.1l-11.1,0v11.1c0,3.7-3,6.7-6.7,6.7h-6.3c-3.7,0-6.7-3-6.7-6.7v-11.1l-11.1,0c-3.7,0-6.7-3-6.7-6.7
	l0-6.3c0-3.7,3-6.7,6.7-6.7l11.1,0V71.3c0-3.7,3-6.7,6.7-6.7h6.3c3.7,0,6.7,3,6.7,6.7v11.1l11.1,0c3.7,0,6.7,3,6.7,6.7l0,6.3
	C133.5,99.1,130.5,102.1,126.8,102.1z"/>
</svg>
