<svg id="Capa_1" enable-background="new 0 0 512 512" height="512" viewBox="0 0 512 512" width="512" xmlns="http://www.w3.org/2000/svg"><g><path d="m66.972 436h378.057c2.737-5.699 66.971-85.947 66.971-213.166v-21.104l-62.734-31.367-14.359-43.08c-10.226-30.674-38.821-51.283-71.153-51.283h-215.508c-32.332 0-60.927 20.609-71.152 51.283l-14.359 43.079-62.735 31.367v21.104c0 126.832 64.366 207.742 66.972 213.167zm361.89-30h-345.724c-33.474-52.808-51.719-113.277-53.05-175.794 37.11 8.606 123.994 25.794 225.912 25.794s188.802-17.188 225.913-25.794c-1.332 62.517-19.577 122.986-53.051 175.794zm-341.596-214.362 18.289-54.867c6.134-18.405 23.292-30.771 42.691-30.771h215.508c19.399 0 36.557 12.366 42.691 30.77l18.289 54.868 28.168 14.084c-42.753 8.645-115.412 20.278-196.902 20.278-81.373 0-154.091-11.64-196.885-20.287z"/><path d="m271 286h-30v30h-30v30h30v30h30v-30h30v-30h-30z"/></g></svg>